<mxfile host="drawio-plugin" agent="5.0 (Windows NT 6.2; Win64; x64) AppleWebKit/537.36 (KHTML, like Gecko) Chrome/104.0.5112.102 Safari/537.36" modified="2025-03-29T13:04:48.042Z" version="20.5.3" etag="nyn1xWkHye96-PGvsGUR" type="embed"><diagram name="Page-1" id="8TUPWQtMKG53scj3dIdi"><mxGraphModel dx="1116" dy="666" grid="1" gridSize="10" guides="1" tooltips="1" connect="1" arrows="1" fold="1" page="1" pageScale="1" pageWidth="827" pageHeight="1169" math="0" shadow="0"><root><mxCell id="0"/><mxCell id="1" parent="0"/><mxCell id="aPgaEuQD01O5bJ1F5qTR-2" value="Main Menu" style="rounded=0;whiteSpace=wrap;html=1;" parent="1" vertex="1"><mxGeometry x="80" y="30" width="120" height="60" as="geometry"/></mxCell><mxCell id="aPgaEuQD01O5bJ1F5qTR-3" value="Player" style="shape=umlActor;verticalLabelPosition=bottom;verticalAlign=top;html=1;outlineConnect=0;" parent="1" vertex="1"><mxGeometry x="30" y="30" width="30" height="60" as="geometry"/></mxCell><mxCell id="aPgaEuQD01O5bJ1F5qTR-5" value="" style="endArrow=classic;html=1;rounded=0;entryX=0.5;entryY=0;entryDx=0;entryDy=0;exitX=0.5;exitY=1;exitDx=0;exitDy=0;" parent="1" edge="1" target="aPgaEuQD01O5bJ1F5qTR-6" source="aPgaEuQD01O5bJ1F5qTR-2"><mxGeometry width="50" height="50" relative="1" as="geometry"><mxPoint x="190" y="90" as="sourcePoint"/><mxPoint x="189.66000000000003" y="160" as="targetPoint"/></mxGeometry></mxCell><mxCell id="aPgaEuQD01O5bJ1F5qTR-6" value="Choose Campaign" style="swimlane;whiteSpace=wrap;html=1;" parent="1" vertex="1"><mxGeometry x="40" y="120" width="200" height="200" as="geometry"/></mxCell><mxCell id="2" value="Final Stand" style="whiteSpace=wrap;html=1;" vertex="1" parent="aPgaEuQD01O5bJ1F5qTR-6"><mxGeometry x="40" y="40" width="120" height="60" as="geometry"/></mxCell><mxCell id="3" value="Hot Diamonds&lt;br&gt;/&lt;br&gt;Other Campaign" style="whiteSpace=wrap;html=1;" vertex="1" parent="aPgaEuQD01O5bJ1F5qTR-6"><mxGeometry x="40" y="120" width="120" height="60" as="geometry"/></mxCell><mxCell id="70" value="Start.lua" style="swimlane;whiteSpace=wrap;html=1;shadow=0;strokeColor=#001DBC;strokeWidth=1;fillColor=#0050ef;fontColor=#ffffff;" vertex="1" parent="1"><mxGeometry x="270" y="20" width="200" height="680" as="geometry"/></mxCell><mxCell id="51" value="&lt;div style=&quot;background-color: rgb(30, 31, 34); color: rgb(188, 190, 196); font-family: &amp;quot;JetBrains Mono&amp;quot;, monospace;&quot;&gt;&lt;span style=&quot;color:#c77dbb;font-style:italic;&quot;&gt;OnMsg&lt;/span&gt;.&lt;span style=&quot;color:#57aaf7;font-style:italic;&quot;&gt;FinalStandSelected&lt;/span&gt;&lt;/div&gt;Set up NewGameObj&lt;br&gt;with default values" style="shape=ext;double=1;rounded=1;whiteSpace=wrap;html=1;" vertex="1" parent="70"><mxGeometry x="38" y="130" width="120" height="80" as="geometry"/></mxCell><mxCell id="93" value="&lt;div style=&quot;background-color: rgb(30, 31, 34); color: rgb(188, 190, 196); font-family: &amp;quot;JetBrains Mono&amp;quot;, monospace;&quot;&gt;&lt;span style=&quot;color:#c77dbb;font-style:italic;&quot;&gt;OnMsg&lt;/span&gt;.&lt;span style=&quot;color:#57aaf7;font-style:italic;&quot;&gt;NewGame&lt;/span&gt;&lt;/div&gt;Set up GameObj with&lt;br&gt;selected values" style="shape=ext;double=1;rounded=1;whiteSpace=wrap;html=1;" vertex="1" parent="70"><mxGeometry x="33" y="520" width="130" height="80" as="geometry"/></mxCell><mxCell id="133" value="&lt;span style=&quot;color: rgb(106, 171, 115); font-family: &amp;quot;JetBrains Mono&amp;quot;, monospace; background-color: rgb(30, 31, 34);&quot;&gt;DialogSetMode&lt;/span&gt;" style="verticalLabelPosition=bottom;verticalAlign=top;html=1;shape=mxgraph.basic.8_point_star;shadow=0;strokeColor=default;strokeWidth=1;" vertex="1" parent="70"><mxGeometry x="63" y="30" width="74" height="65" as="geometry"/></mxCell><mxCell id="74" value="UI.Lua" style="swimlane;whiteSpace=wrap;html=1;shadow=0;strokeColor=#001DBC;strokeWidth=1;fillColor=#0050ef;fontColor=#ffffff;" vertex="1" parent="1"><mxGeometry x="510" y="20" width="180" height="360" as="geometry"/></mxCell><mxCell id="14" value="Generate Templates for Items" style="shape=ext;double=1;rounded=1;whiteSpace=wrap;html=1;" vertex="1" parent="74"><mxGeometry x="30" y="130" width="120" height="80" as="geometry"/></mxCell><mxCell id="13" value="Ensure menu elements are removed&lt;br&gt;(TODO)" style="shape=ext;double=1;rounded=1;whiteSpace=wrap;html=1;" vertex="1" parent="74"><mxGeometry x="30" y="270" width="120" height="80" as="geometry"/></mxCell><mxCell id="134" value="&lt;span style=&quot;color: rgb(106, 171, 115); font-family: &amp;quot;JetBrains Mono&amp;quot;, monospace; background-color: rgb(30, 31, 34);&quot;&gt;FinalStandSelected&lt;/span&gt;" style="verticalLabelPosition=bottom;verticalAlign=top;html=1;shape=mxgraph.basic.8_point_star;shadow=0;strokeColor=default;strokeWidth=1;" vertex="1" parent="74"><mxGeometry x="53" y="30" width="74" height="65" as="geometry"/></mxCell><mxCell id="75" value="UIPresets.Lua" style="swimlane;whiteSpace=wrap;html=1;shadow=0;strokeColor=#001DBC;strokeWidth=1;fillColor=#0050ef;fontColor=#ffffff;" vertex="1" parent="1"><mxGeometry x="510" y="410" width="180" height="180" as="geometry"/></mxCell><mxCell id="35" value="Table" style="shape=table;startSize=25;container=1;collapsible=0;childLayout=tableLayout;fixedRows=1;rowLines=0;fontStyle=1;strokeColor=default;strokeWidth=1;swimlaneLine=1;shadow=0;columnLines=0;" vertex="1" parent="75"><mxGeometry x="5" y="30" width="170" height="140" as="geometry"/></mxCell><mxCell id="36" value="" style="shape=tableRow;horizontal=0;startSize=0;swimlaneHead=0;swimlaneBody=0;top=0;left=0;bottom=0;right=0;collapsible=0;dropTarget=0;fillColor=none;points=[[0,0.5],[1,0.5]];portConstraint=eastwest;" vertex="1" parent="35"><mxGeometry y="25" width="170" height="30" as="geometry"/></mxCell><mxCell id="37" value="1" style="shape=partialRectangle;html=1;whiteSpace=wrap;connectable=0;fillColor=none;top=0;left=0;bottom=0;right=0;overflow=hidden;pointerEvents=1;" vertex="1" parent="36"><mxGeometry width="38" height="30" as="geometry"><mxRectangle width="38" height="30" as="alternateBounds"/></mxGeometry></mxCell><mxCell id="38" value="Config (TODO)" style="shape=partialRectangle;html=1;whiteSpace=wrap;connectable=0;fillColor=none;top=0;left=0;bottom=0;right=0;align=left;spacingLeft=6;overflow=hidden;" vertex="1" parent="36"><mxGeometry x="38" width="132" height="30" as="geometry"><mxRectangle width="132" height="30" as="alternateBounds"/></mxGeometry></mxCell><mxCell id="39" value="" style="shape=tableRow;horizontal=0;startSize=0;swimlaneHead=0;swimlaneBody=0;top=0;left=0;bottom=0;right=0;collapsible=0;dropTarget=0;fillColor=none;points=[[0,0.5],[1,0.5]];portConstraint=eastwest;" vertex="1" parent="35"><mxGeometry y="55" width="170" height="30" as="geometry"/></mxCell><mxCell id="40" value="2" style="shape=partialRectangle;html=1;whiteSpace=wrap;connectable=0;fillColor=none;top=0;left=0;bottom=0;right=0;overflow=hidden;" vertex="1" parent="39"><mxGeometry width="38" height="30" as="geometry"><mxRectangle width="38" height="30" as="alternateBounds"/></mxGeometry></mxCell><mxCell id="41" value="Lengths" style="shape=partialRectangle;html=1;whiteSpace=wrap;connectable=0;fillColor=none;top=0;left=0;bottom=0;right=0;align=left;spacingLeft=6;overflow=hidden;" vertex="1" parent="39"><mxGeometry x="38" width="132" height="30" as="geometry"><mxRectangle width="132" height="30" as="alternateBounds"/></mxGeometry></mxCell><mxCell id="42" value="" style="shape=tableRow;horizontal=0;startSize=0;swimlaneHead=0;swimlaneBody=0;top=0;left=0;bottom=0;right=0;collapsible=0;dropTarget=0;fillColor=none;points=[[0,0.5],[1,0.5]];portConstraint=eastwest;" vertex="1" parent="35"><mxGeometry y="85" width="170" height="30" as="geometry"/></mxCell><mxCell id="43" value="3" style="shape=partialRectangle;html=1;whiteSpace=wrap;connectable=0;fillColor=none;top=0;left=0;bottom=0;right=0;overflow=hidden;" vertex="1" parent="42"><mxGeometry width="38" height="30" as="geometry"><mxRectangle width="38" height="30" as="alternateBounds"/></mxGeometry></mxCell><mxCell id="44" value="Player Faction" style="shape=partialRectangle;html=1;whiteSpace=wrap;connectable=0;fillColor=none;top=0;left=0;bottom=0;right=0;align=left;spacingLeft=6;overflow=hidden;" vertex="1" parent="42"><mxGeometry x="38" width="132" height="30" as="geometry"><mxRectangle width="132" height="30" as="alternateBounds"/></mxGeometry></mxCell><mxCell id="95" value="Choose Campaign Options" style="swimlane;whiteSpace=wrap;html=1;" vertex="1" parent="1"><mxGeometry x="40" y="370" width="200" height="125" as="geometry"/></mxCell><mxCell id="96" value="Game Options" style="whiteSpace=wrap;html=1;" vertex="1" parent="95"><mxGeometry x="40" y="40" width="120" height="60" as="geometry"/></mxCell><mxCell id="99" style="edgeStyle=orthogonalEdgeStyle;rounded=0;orthogonalLoop=1;jettySize=auto;html=1;exitX=1;exitY=0.5;exitDx=0;exitDy=0;entryX=0;entryY=0.5;entryDx=0;entryDy=0;" edge="1" parent="1" source="3" target="13"><mxGeometry relative="1" as="geometry"/></mxCell><mxCell id="100" style="edgeStyle=orthogonalEdgeStyle;rounded=0;orthogonalLoop=1;jettySize=auto;html=1;exitX=1;exitY=0.5;exitDx=0;exitDy=0;entryX=1;entryY=0.5;entryDx=0;entryDy=0;" edge="1" parent="1" source="14" target="39"><mxGeometry relative="1" as="geometry"/></mxCell><mxCell id="120" style="edgeStyle=orthogonalEdgeStyle;rounded=0;orthogonalLoop=1;jettySize=auto;html=1;exitX=1;exitY=0.5;exitDx=0;exitDy=0;entryX=0;entryY=0.5;entryDx=0;entryDy=0;" edge="1" parent="1" source="96" target="93"><mxGeometry relative="1" as="geometry"/></mxCell><mxCell id="122" style="edgeStyle=orthogonalEdgeStyle;rounded=0;orthogonalLoop=1;jettySize=auto;html=1;exitX=0;exitY=0.5;exitDx=0;exitDy=0;entryX=0.5;entryY=0;entryDx=0;entryDy=0;" edge="1" parent="1" source="39" target="95"><mxGeometry relative="1" as="geometry"/></mxCell><mxCell id="135" style="edgeStyle=orthogonalEdgeStyle;rounded=0;orthogonalLoop=1;jettySize=auto;html=1;exitX=1;exitY=0.29;exitDx=0;exitDy=0;exitPerimeter=0;entryX=0;entryY=0.29;entryDx=0;entryDy=0;entryPerimeter=0;" edge="1" parent="1" source="133" target="134"><mxGeometry relative="1" as="geometry"/></mxCell><mxCell id="136" style="edgeStyle=orthogonalEdgeStyle;rounded=0;orthogonalLoop=1;jettySize=auto;html=1;exitX=1;exitY=0.5;exitDx=0;exitDy=0;entryX=0;entryY=0.29;entryDx=0;entryDy=0;entryPerimeter=0;" edge="1" parent="1" source="2" target="133"><mxGeometry relative="1" as="geometry"/></mxCell><mxCell id="138" style="edgeStyle=orthogonalEdgeStyle;rounded=0;orthogonalLoop=1;jettySize=auto;html=1;exitX=1;exitY=0.71;exitDx=0;exitDy=0;exitPerimeter=0;entryX=0;entryY=0.5;entryDx=0;entryDy=0;" edge="1" parent="1" source="133" target="14"><mxGeometry relative="1" as="geometry"/></mxCell><mxCell id="139" style="edgeStyle=orthogonalEdgeStyle;rounded=0;orthogonalLoop=1;jettySize=auto;html=1;exitX=0;exitY=0.71;exitDx=0;exitDy=0;exitPerimeter=0;entryX=1;entryY=0.25;entryDx=0;entryDy=0;" edge="1" parent="1" source="134" target="51"><mxGeometry relative="1" as="geometry"/></mxCell></root></mxGraphModel></diagram></mxfile>